<svg width="14" height="14" viewBox="0 0 14 14" fill="none" xmlns="http://www.w3.org/2000/svg">
<path d="M4.08361 6.70801L4.0037 6.97459C3.48634 8.69921 3.51425 10.5415 4.08361 12.2497M6.76987 3.37241L6.90403 1.99049C6.95712 1.43516 7.4757 1.05833 7.99953 1.19366C8.78762 1.39783 9.3412 2.12991 9.3412 2.96933L9.3412 4.73974C9.3412 5.13349 9.3412 5.33066 9.42637 5.47474C9.47478 5.55699 9.54128 5.62641 9.62062 5.67599C9.76062 5.76408 9.95137 5.76408 10.3323 5.76408L10.5633 5.76408C11.5567 5.76408 12.0531 5.76408 12.3588 5.99158C12.588 6.16249 12.7496 6.41274 12.8138 6.69624C12.899 7.07541 12.7082 7.54966 12.3261 8.49699L12.136 8.96949C12.0256 9.24315 11.9805 9.53872 12.0041 9.83283C12.1395 11.5093 10.81 12.9216 9.18487 12.8288L3.1042 12.4794C2.43978 12.4415 2.10787 12.4222 1.80803 12.1568C1.50762 11.8914 1.45103 11.6178 1.33845 11.0712C1.09884 9.90843 1.10977 8.70791 1.37053 7.54966C1.53562 6.82166 2.23095 6.42966 2.94903 6.52299C4.85303 6.76799 6.57912 5.34466 6.76987 3.37241Z" stroke="white" stroke-width="2" stroke-linecap="round" stroke-linejoin="round"/>
</svg>
