<svg width="18" height="18" viewBox="0 0 18 18" fill="none" xmlns="http://www.w3.org/2000/svg">
<g clip-path="url(#clip0_379_1296)">
<path d="M10.5 14.25C13.3283 14.25 14.7427 14.25 15.621 13.371C16.5 12.4927 16.5 11.0782 16.5 8.25C16.5 5.42175 16.5 4.00725 15.621 3.129C14.7427 2.25 13.3282 2.25 10.5 2.25L7.5 2.25C4.67175 2.25 3.25725 2.25 2.379 3.129C1.5 4.00725 1.5 5.42175 1.5 8.25C1.5 11.0782 1.5 12.4927 2.379 13.371C2.86875 13.8615 3.525 14.0783 4.5 14.1735" stroke="#7D7D7D" stroke-width="2" stroke-linecap="round" stroke-linejoin="round"/>
<path d="M10.4999 14.25C9.57294 14.25 8.55144 14.625 7.61919 15.1088C6.12069 15.8865 5.37144 16.2758 5.00244 16.0275C4.63344 15.78 4.70319 15.0113 4.84344 13.4745L4.87494 13.125" stroke="#7D7D7D" stroke-width="2" stroke-linecap="round"/>
</g>
<defs>
<clipPath id="clip0_379_1296">
<rect width="18" height="18" fill="white"/>
</clipPath>
</defs>
</svg>
