<svg width="20" height="22" viewBox="0 0 20 22" fill="none" xmlns="http://www.w3.org/2000/svg">
<path d="M9.95313 5.57616C9.02912 5.57616 8.12586 5.86546 7.35757 6.40748C6.58928 6.9495 5.99048 7.71989 5.63688 8.62124C5.28327 9.52258 5.19075 10.5144 5.37102 11.4713C5.55128 12.4281 5.99624 13.3071 6.64961 13.9969C7.30298 14.6868 8.13543 15.1566 9.04169 15.3469C9.94794 15.5372 10.8873 15.4395 11.741 15.0662C12.5946 14.6928 13.3243 14.0606 13.8376 13.2494C14.351 12.4382 14.625 11.4845 14.625 10.5089C14.625 9.20067 14.1328 7.94601 13.2566 7.02094C12.3805 6.09586 11.1922 5.57616 9.95313 5.57616ZM9.95313 14.1549C9.27016 14.1549 8.60254 13.941 8.03467 13.5404C7.46681 13.1398 7.02421 12.5704 6.76285 11.9042C6.50149 11.238 6.43311 10.5049 6.56635 9.79763C6.69959 9.09039 7.02847 8.44074 7.5114 7.93084C7.99432 7.42095 8.60961 7.07371 9.27945 6.93303C9.94929 6.79235 10.6436 6.86455 11.2746 7.1405C11.9056 7.41646 12.4449 7.88377 12.8243 8.48334C13.2037 9.08291 13.4063 9.78782 13.4063 10.5089C13.4036 11.475 13.0389 12.4007 12.3919 13.0839C11.7449 13.767 10.8681 14.152 9.95313 14.1549ZM14.4219 1.32852e-08L5.48438 5.05212e-09C4.02983 3.71222e-09 2.63486 0.610083 1.60634 1.69604C0.577816 2.78199 3.71222e-09 4.25486 5.05212e-09 5.79063L1.32852e-08 15.2272C1.46251e-08 16.763 0.577817 18.2359 1.60634 19.3218C2.63486 20.4078 4.02983 21.0178 5.48438 21.0178L14.4219 21.0178C15.8764 21.0178 17.2714 20.4078 18.2999 19.3218C19.3284 18.2359 19.9063 16.763 19.9063 15.2272L19.9063 5.79063C19.9063 4.25486 19.3284 2.78199 18.2999 1.69604C17.2714 0.610083 15.8764 1.46251e-08 14.4219 1.32852e-08ZM18.6875 15.2272C18.6875 16.4217 18.2381 17.5673 17.4381 18.4119C16.6382 19.2565 15.5532 19.731 14.4219 19.731L5.48438 19.731C4.35306 19.731 3.26808 19.2565 2.46812 18.4119C1.66816 17.5673 1.21875 16.4217 1.21875 15.2272L1.21875 5.79063C1.21875 4.59614 1.66816 3.45058 2.46812 2.60595C3.26808 1.76132 4.35306 1.28681 5.48438 1.28681L14.4219 1.28681C15.5532 1.28681 16.6382 1.76132 17.4381 2.60595C18.2381 3.45058 18.6875 4.59614 18.6875 5.79063L18.6875 15.2272ZM16.25 4.93276C16.25 5.14485 16.1904 5.35217 16.0788 5.52852C15.9672 5.70486 15.8086 5.84231 15.623 5.92347C15.4375 6.00463 15.2332 6.02587 15.0362 5.98449C14.8392 5.94312 14.6583 5.84099 14.5162 5.69102C14.3742 5.54105 14.2775 5.34998 14.2383 5.14196C14.1991 4.93395 14.2192 4.71834 14.2961 4.52239C14.3729 4.32645 14.5031 4.15897 14.6701 4.04114C14.8371 3.92331 15.0335 3.86042 15.2344 3.86042C15.5037 3.86042 15.7621 3.9734 15.9525 4.1745C16.143 4.3756 16.25 4.64836 16.25 4.93276Z" fill="black"/>
</svg>
