<svg width="21" height="21" viewBox="0 0 21 21" fill="none" xmlns="http://www.w3.org/2000/svg">
<g clip-path="url(#clip0_379_1254)">
<path d="M5.63965 5.7627C6.04775 5.7627 6.37793 5.43252 6.37793 5.02441L6.37793 0.738281C6.37793 0.330176 6.04775 -5.64633e-08 5.63965 -4.9731e-08C5.23154 -4.29987e-08 4.90137 0.330176 4.90137 0.738281L4.90137 5.02441C4.90137 5.43252 5.23154 5.7627 5.63965 5.7627ZM18.2109 8.71582L15.75 8.71582C15.75 7.89961 15.0896 7.23926 14.2734 7.23926L4.10156 7.23926C3.28535 7.23926 2.625 7.89961 2.625 8.71582L2.625 13.8018C2.625 13.8715 2.6291 13.9392 2.63936 14.0048C2.6291 14.1483 2.625 14.2919 2.625 14.4375C2.625 18.0612 5.56377 21 9.1875 21C12.4708 21 15.1901 18.5903 15.6741 15.4424L18.2109 15.4424C19.0271 15.4424 19.6875 14.782 19.6875 13.9658L19.6875 10.1924C19.6875 9.37617 19.0271 8.71582 18.2109 8.71582ZM14.2734 13.9658L14.2509 13.9658C14.2652 14.1217 14.2734 14.2775 14.2734 14.4375C14.2734 17.2471 11.9971 19.5234 9.1875 19.5234C6.37793 19.5234 4.10156 17.2471 4.10156 14.4375C4.10156 14.2775 4.10977 14.1217 4.12412 13.9658L4.10156 13.9658L4.10156 8.71582L14.2734 8.71582L14.2734 13.9658ZM18.2109 13.8018L15.9141 13.8018L15.9141 10.1924L18.2109 10.1924L18.2109 13.8018ZM12.5713 5.7627C12.9794 5.7627 13.3096 5.43252 13.3096 5.02441L13.3096 0.738281C13.3096 0.330176 12.9794 -1.70811e-07 12.5713 -1.64078e-07C12.1632 -1.57346e-07 11.833 0.330176 11.833 0.738281L11.833 5.02441C11.833 5.43252 12.1632 5.7627 12.5713 5.7627ZM9.08496 5.7627C9.49307 5.7627 9.82324 5.43252 9.82324 5.02441L9.82324 0.738281C9.82324 0.330176 9.49307 -1.13299e-07 9.08496 -1.06566e-07C8.67686 -9.98341e-08 8.34668 0.330176 8.34668 0.738281L8.34668 5.02441C8.34668 5.43252 8.67686 5.7627 9.08496 5.7627Z" fill="black"/>
</g>
<defs>
<clipPath id="clip0_379_1254">
<rect width="21" height="21" fill="white"/>
</clipPath>
</defs>
</svg>
