<svg width="16" height="16" viewBox="0 0 16 16" fill="none" xmlns="http://www.w3.org/2000/svg">
<g clip-path="url(#clip0_379_1237)">
<path d="M8.00016 9.33333C9.47083 9.33333 10.6668 8.13733 10.6668 6.66667C10.6668 5.196 9.47083 4 8.00016 4C6.5295 4 5.3335 5.196 5.3335 6.66667C5.3335 8.13733 6.5295 9.33333 8.00016 9.33333ZM8.00016 5.33333C8.7355 5.33333 9.3335 5.93133 9.3335 6.66667C9.3335 7.402 8.7355 8 8.00016 8C7.26483 8 6.66683 7.402 6.66683 6.66667C6.66683 5.93133 7.26483 5.33333 8.00016 5.33333Z" fill="black"/>
<path d="M7.56501 15.8513C7.69194 15.948 7.84402 16 8 16C8.15598 16 8.30806 15.948 8.435 15.8513C8.66299 15.6793 14.0217 11.5521 13.9999 6.40005C13.9999 2.87122 11.3082 -1.53552e-07 8 -9.89786e-08C4.69179 -4.44049e-08 2.00007 2.87122 2.00007 6.39605C1.97832 11.5521 7.33701 15.6793 7.56501 15.8513ZM8 1.60001C10.4817 1.60001 12.5 3.75283 12.5 6.40405C12.5157 9.95448 9.20899 13.1425 8 14.1881C6.79176 13.1417 3.4843 9.95288 3.50005 6.40005C3.50005 3.75283 5.51828 1.60001 8 1.60001Z" fill="black"/>
</g>
<defs>
<clipPath id="clip0_379_1237">
<rect width="16" height="16" fill="white"/>
</clipPath>
</defs>
</svg>
