<svg width="14" height="14" viewBox="0 0 14 14" fill="none" xmlns="http://www.w3.org/2000/svg">
<path d="M6.46 1.53527C6.64667 1.04293 7.35308 1.04293 7.54033 1.53527L8.74783 4.8801C8.78996 4.98906 8.86414 5.08268 8.96058 5.1486C9.05702 5.21453 9.17118 5.24966 9.288 5.24935L12.2554 5.24935C12.8038 5.24935 13.0429 5.93185 12.6118 6.2661L10.5002 8.16602C10.4056 8.23873 10.3364 8.33954 10.3027 8.45398C10.269 8.56842 10.2723 8.69061 10.3123 8.80302L11.0835 12.0714C11.2713 12.5964 10.6635 13.0473 10.2038 12.7242L7.33558 10.9042C7.23736 10.8351 7.12022 10.7981 7.00017 10.7981C6.88011 10.7981 6.76298 10.8351 6.66475 10.9042L3.7965 12.7242C3.33742 13.0473 2.729 12.5958 2.91683 12.0714L3.688 8.80302C3.728 8.69061 3.73138 8.56842 3.69763 8.45398C3.66389 8.33954 3.59476 8.23873 3.50017 8.16602L1.3885 6.2661C0.956834 5.93185 1.19717 5.24935 1.74433 5.24935L4.71175 5.24935C4.82859 5.24974 4.94279 5.21464 5.03924 5.14871C5.1357 5.08277 5.20986 4.9891 5.25192 4.8801L6.45942 1.53527L6.46 1.53527Z" stroke="white" stroke-width="2" stroke-linecap="round" stroke-linejoin="round"/>
</svg>
